# xmcd
#
# Track frame offsets:
#	150
#	11567
#	20575
#	37355
#	63495
#	77904
#	93817
#	106872
#	132300
#	145265
#	157365
#	174152
#
# Disc length: 2477 seconds
#
# Revision: 3
# Processed by: cddbd v1.5.2PL0 Copyright (c) Steve Scherf et al.
# Submitted via: audiograbber 1.83.01
#
DISCID=a009ab0c
DTITLE=Deutsche Patrioten - Widerstand verboten
DYEAR=1900
DGENRE=
TTITLE0=Was ihr wollt
TTITLE1=Vereinte Kraft
TTITLE2=Alles nicht ganz wahr
TTITLE3=Weg damit
TTITLE4=Schlechte Zeiten
TTITLE5=Ihr seid die besten
TTITLE6=Verlogene Welt
TTITLE7=Nie allein
TTITLE8=Niemand kann dir sagen
TTITLE9=Ein Leben lang
TTITLE10=Politiker
TTITLE11=Verlorene Freunde
EXTD=
EXTT0=
EXTT1=
EXTT2=
EXTT3=
EXTT4=
EXTT5=
EXTT6=
EXTT7=
EXTT8=
EXTT9=
EXTT10=
EXTT11=
PLAYORDER=
